<?xml version="1.0" encoding="UTF-8"?>
<!DOCTYPE svg PUBLIC "-//W3C//DTD SVG 1.1//EN" "http://www.w3.org/Graphics/SVG/1.1/DTD/svg11.dtd">
<!-- Creator: CorelDRAW -->
<svg xmlns="http://www.w3.org/2000/svg" xml:space="preserve" width="1.07325in" height="0.766638in" version="1.1" style="shape-rendering:geometricPrecision; text-rendering:geometricPrecision; image-rendering:optimizeQuality; fill-rule:evenodd; clip-rule:evenodd"
viewBox="0 0 1073.25 766.64"
 xmlns:xlink="http://www.w3.org/1999/xlink"
 xmlns:xodm="http://www.corel.com/coreldraw/odm/2003">
 <defs>
  <style type="text/css">
   <![CDATA[
    .fil0 {fill:#3F3F3F;fill-rule:nonzero}
   ]]>
  </style>
 </defs>
 <g id="Layer_x0020_1">
  <metadata id="CorelCorpID_0Corel-Layer"/>
  <g id="_1989925968384">
   <path class="fil0" d="M1048.85 456.91c0,0 0.51,-1.31 -0.19,-3.18 -0.66,-1.88 -2.7,-3.91 -5.64,-5.71 -1.46,-0.91 -3.06,-1.67 -5.04,-2.64 -1.88,-0.79 -3.87,-1.62 -5.92,-2.48 -2.07,-0.89 -4.32,-1.63 -6.52,-2.56 -2.24,-0.85 -4.52,-1.72 -6.8,-2.58 -4.54,-1.8 -9.12,-3.52 -13.39,-5.27 -4.27,-1.73 -8.24,-3.4 -11.63,-4.93 -6.78,-3 -11.2,-5.44 -11.2,-5.44 0,0 5.04,0.35 12.34,1.89 3.67,0.74 7.89,1.76 12.35,3.05 4.49,1.25 9.19,2.87 13.86,4.58 4.64,1.81 9.26,3.75 13.43,5.98 2.14,1.06 4.05,2.22 6,3.48 1.69,1.15 3.52,2.49 4.91,3.93 2.89,2.71 4.61,6.04 4.55,8.5 -0.04,2.48 -1.21,3.42 -1.14,3.41zm-388.77 -433.67l-2.85 0c-2.94,0.65 -5.15,3.28 -5.15,6.42l0 81.94c-25.97,1.43 -51.61,4.78 -82.06,8.75 -64.17,8.38 -152.06,19.87 -307.91,19.87 -33.91,0 -68.26,-48.81 -78.63,-67.62 -2.32,-4.2 -6.73,-6.81 -11.53,-6.81l-25.16 0 0 -9.64c0.63,-0.22 1.22,-0.47 1.78,-0.75 2.28,-1.04 3.8,-2.51 3.8,-2.51 0,0 -1.52,-1.47 -3.8,-2.5 -2.28,-1.17 -5.32,-1.87 -8.35,-1.88 -3.04,0 -6.07,0.69 -8.35,1.86 -2.28,1.04 -3.8,2.52 -3.8,2.52 0,0 1.52,1.47 3.8,2.52 0.55,0.28 1.15,0.53 1.77,0.76l0 9.62 -9.91 0c-7.27,0 -13.15,5.89 -13.15,13.15l0 294.96c0,6.91 5.35,12.51 12.12,13.05l5.04 83.74 -3.63 0c-0.32,-1.45 -0.79,-2.81 -1.38,-3.96 -1.04,-2.28 -2.51,-3.8 -2.51,-3.8 0,0 -1.46,1.52 -2.5,3.8 -1.17,2.28 -1.87,5.31 -1.88,8.35 0,3.04 0.69,6.08 1.86,8.35 1.04,2.28 2.52,3.8 2.52,3.8 0,0 1.48,-1.52 2.52,-3.8 0.6,-1.16 1.06,-2.52 1.38,-3.97l4.15 0 2.09 34.8 5.31 -88.23 4.36 0c0.32,1.45 0.78,2.81 1.38,3.96 1.04,2.28 2.52,3.8 2.52,3.8 0,0 1.47,-1.52 2.52,-3.8 1.17,-2.28 1.86,-5.31 1.86,-8.35 -0.01,-3.04 -0.71,-6.07 -1.87,-8.35 -1.04,-2.28 -2.51,-3.8 -2.51,-3.8 0,0 -1.47,1.52 -2.51,3.8 -0.59,1.16 -1.06,2.51 -1.38,3.96l-3.85 0 1.82 -30.2 29.76 0c6.31,0 11.74,-4.49 12.92,-10.7 6.46,-33.87 33.71,-121.78 81.43,-121.78l8.04 -0.01 10.72 -0c29.99,0 109.65,0 178.79,6.64 101.46,9.74 123.17,28.01 127.8,35.42 4.96,7.93 13.35,36.96 -15.81,134.9 -10.57,35.5 -22.79,68.84 -30.37,88.59l-494.48 0c-14.27,0 -25.88,11.61 -25.88,25.87l0 102.72c0,14.27 11.61,25.87 25.88,25.87l926.67 0c14.27,0 25.88,-11.61 25.88,-25.87l0 -102.72c0,-14.27 -11.61,-25.87 -25.88,-25.87l-188.9 0c-2.48,-10.93 -5.44,-27.64 -7.85,-51.88l22.61 0c12.58,0 22.82,-10.23 22.82,-22.81l0 -59.54 114.16 0c0.66,0 1.3,-0.12 1.91,-0.29 8.72,-0.31 16.16,-5.5 19.74,-12.94l0 45.71c0,3.89 3.15,7.04 7.04,7.04 0.81,0 1.58,-0.17 2.31,-0.42 8.78,10.78 38.09,27.34 55.46,34.95 21.58,9.46 28.3,5.07 31.58,-2.41 3.28,-7.49 1.96,-15.4 -19.62,-24.86 -17.15,-7.51 -48.53,-17.63 -62.69,-17.08l0 -135.32c0,-3.89 -3.15,-7.04 -7.04,-7.04 -1.83,0 -3.49,0.72 -4.74,1.87l0 -59.89c0,-12.58 -10.23,-22.82 -22.82,-22.82l-36.55 0c-0.64,0 -1.24,0.14 -1.87,0.19l0 -96.7c0,-20.3 -16.52,-36.83 -36.82,-36.83 -20.3,0 -36.83,16.52 -36.83,36.83l0 47.13 -75.22 0c-0.37,0 -0.72,0.04 -1.09,0.06 -2.43,-3.47 -5.02,-6.78 -7.98,-9.76 -14.96,-15.09 -35.5,-22.43 -62.8,-22.43 -4.4,0 -8.74,0.07 -13.06,0.19l0 -81.39c0,-3.14 -2.2,-5.77 -5.15,-6.42zm-68.41 385.62c10.7,-35.15 21.1,-80.37 20.38,-117.61 2.65,6.69 5.23,13.85 7.62,21.37 4.82,15.14 8.87,31.7 11.81,48.53 5.96,33.69 7.08,68.28 6.59,94.15 -0.25,12.95 -0.83,23.75 -1.32,31.31 -0.53,7.56 -0.83,11.87 -0.83,11.87 0,0 0.65,-4.28 1.77,-11.78 1.09,-7.5 2.52,-18.24 3.81,-31.2 2.55,-25.88 4.22,-60.81 0.86,-95.8 -1.02,-10.74 -2.51,-21.43 -4.35,-31.84 12,48.59 18.19,116.66 8.79,209.7l115.77 5.96 -216.35 0c0,0 27.9,-67.7 45.48,-134.67zm-455.9 -102.97l-6.33 -212.59 -5.7 191.84 0 -206.2 12.03 0 0 226.95zm525.45 -178.82c-10.61,0.52 -17.64,1.07 -17.64,1.07 0,0 7.03,0.83 17.47,2.35 10.41,1.56 24.27,4 37.02,8.6 9.35,3.27 17.86,7.94 24.42,12.71 -21.5,-3.36 -55.11,-1.73 -108.04,7.52 -155.3,27.14 -326.98,25.09 -369.36,9.79 -37.83,-13.66 -66.72,-51.59 -71.11,-86.7 8.77,14.64 45.27,70.96 88.14,70.96 251.59,0 323.92,-29.35 416.17,-29.35 16.13,0 29.02,2.88 39.42,8.31 -5.48,-1.7 -11.22,-3.05 -17,-3.87 -14.56,-2.21 -28.89,-1.85 -39.48,-1.38zm164.14 42.44l0 10.1 -60.68 0c-1.8,-7.3 -4.01,-14.06 -6.67,-20.29l55.48 0 -37.57 4.4 49.44 5.79zm120.82 45.69l0 56.35 -9.87 -60.42 -7.26 44.49c-18.72,-25.95 -24.54,-41.52 -26.32,-49.17l34.7 0c4.83,0 8.75,3.92 8.75,8.75zm-146.85 142.31l-27.17 0c0.02,-13.77 0.12,-27.09 0.23,-39.95 0.19,-21.25 0.34,-41.04 0.04,-59.35l52.93 0 0 47.13c0,20.31 16.52,36.82 36.83,36.82 5.69,0 11.06,-1.34 15.88,-3.65l0 24.32c0,3.18 0.66,6.2 1.84,8.96l-59.44 0c-3.39,-8.36 -11.57,-14.29 -21.13,-14.29zm-70.92 -75.04c-0.02,-0.04 -0.04,-0.08 -0.06,-0.13 -1.91,-3.16 -4.42,-5.62 -6.95,-7.44 -2.51,-1.85 -5.11,-3.05 -7.48,-3.7 -2.33,-0.76 -4.47,-0.89 -6.16,-0.98 -1.76,0 -3.04,0.15 -3.9,0.33 -0.87,0.17 -1.33,0.26 -1.33,0.26 0,0 0.45,0.13 1.3,0.39 0.87,0.17 2.08,0.69 3.49,1.21 1.43,0.65 3.09,1.5 4.8,2.68 1.72,1.15 3.4,2.76 4.97,4.57 1.54,1.87 2.85,4.1 3.85,6.54 0.97,2.46 1.43,5.18 1.46,7.94 -0.03,0.33 -0.02,0.72 -0.03,1.09 -0.27,-10.74 -9.02,-19.39 -19.83,-19.39 -10.98,0 -19.88,8.91 -19.88,19.88 0,10.63 8.36,19.23 18.85,19.78 -0.24,0 -0.45,0.06 -0.69,0.06 -2.58,-0.03 -5.33,-0.48 -7.79,-1.45 -2.44,-0.98 -4.66,-2.3 -6.54,-3.84 -1.82,-1.57 -3.43,-3.24 -4.57,-4.96 -1.19,-1.7 -2.03,-3.37 -2.69,-4.8 -0.53,-1.45 -1.04,-2.64 -1.21,-3.49 -0.26,-0.84 -0.39,-1.3 -0.39,-1.3 0,0 -0.09,0.46 -0.26,1.33 -0.18,0.88 -0.33,2.19 -0.33,3.9 0.09,1.69 0.22,3.82 0.98,6.16 0.65,2.37 1.85,4.97 3.7,7.48 1.77,2.52 4.25,4.95 7.33,6.89 -9.27,-4.86 -15.61,-14.57 -15.61,-25.77 0,-16.07 13.03,-29.1 29.1,-29.1 11.3,0 21.07,6.44 25.89,15.85zm-111.24 -108.46c-12.51,2.67 -25.72,5.57 -39.56,8.09 -13.8,2.5 -28.13,4.72 -42.71,6.78 -14.6,1.94 -29.47,3.57 -44.36,4.98 -14.89,1.44 -29.83,2.33 -44.53,3.09 -14.71,0.77 -29.2,1.14 -43.22,1.22 -28.04,0.21 -54.22,-0.79 -76.58,-2.73 -22.37,-1.77 -40.88,-4.8 -53.69,-7.48 -6.41,-1.35 -11.35,-2.83 -14.69,-3.92 -3.31,-1.13 -5.04,-1.84 -5.04,-1.84 0,0 1.79,0.55 5.18,1.37 3.39,0.8 8.43,1.71 14.85,2.67 12.87,1.92 31.43,3.24 53.7,4.06 22.28,0.79 48.29,0.79 76.13,0.05 13.92,-0.37 28.3,-1.1 42.9,-1.89 14.6,-0.81 29.41,-1.97 44.2,-3.26 14.8,-1.3 29.57,-2.81 44.08,-4.63 14.51,-1.74 28.78,-3.65 42.53,-5.83 13.72,-2.11 27.03,-4.42 39.64,-6.74 12.66,-2.22 24.69,-3.98 35.8,-5.42 22.26,-2.81 40.94,-4 54.03,-4.13 6.55,-0.02 11.69,0.3 15.18,0.67 3.48,0.39 5.31,0.72 5.31,0.72 0,0 -1.86,-0.19 -5.35,-0.3 -3.48,-0.12 -8.6,0.07 -15.09,0.46 -6.49,0.44 -14.35,1.24 -23.33,2.44 -8.98,1.17 -19.07,2.83 -30.06,4.72 -10.98,1.89 -22.84,4.22 -35.34,6.85zm-444.31 67.65c9.23,0 17.22,5.25 21.19,12.92 -1.6,-2.58 -3.62,-4.68 -5.72,-6.13 -2.06,-1.52 -4.2,-2.5 -6.14,-3.03 -1.91,-0.63 -3.66,-0.73 -5.04,-0.8 -1.44,0 -2.5,0.12 -3.2,0.27 -0.71,0.14 -1.09,0.21 -1.09,0.21 0,0 0.37,0.11 1.06,0.31 0.71,0.15 1.71,0.57 2.86,0.99 2.35,1.01 5.47,2.88 8.01,5.95 2.53,3.06 4.41,7.3 4.35,11.87 -0.02,0.27 -0.02,0.59 -0.03,0.89 -0.22,-8.81 -7.39,-15.89 -16.26,-15.89 -9,0 -16.3,7.3 -16.3,16.31 0,8.71 6.85,15.76 15.45,16.21 -0.2,0.01 -0.37,0.05 -0.57,0.05 -2.12,-0.02 -4.37,-0.39 -6.39,-1.19 -2,-0.81 -3.82,-1.9 -5.35,-3.15 -3.07,-2.54 -4.94,-5.65 -5.96,-8 -0.43,-1.19 -0.85,-2.17 -0.99,-2.86 -0.21,-0.69 -0.32,-1.06 -0.32,-1.06 0,0 -0.07,0.38 -0.21,1.09 -0.15,0.72 -0.26,1.79 -0.27,3.2 0.05,2.74 0.78,7.02 3.83,11.19 1.46,2.07 3.49,4.06 6.01,5.65 -7.6,-3.99 -12.8,-11.95 -12.8,-21.13 0,-13.18 10.68,-23.87 23.87,-23.87zm19.48 -79.74c0.89,0.79 1.83,1.5 2.57,2.44l2.39 2.55c0.8,0.81 1.37,1.86 2.11,2.72 0.7,0.89 1.41,1.76 1.94,2.76l1.72 2.86 1.44 2.99c0.54,0.96 0.8,2.06 1.2,3.07 0.39,1.02 0.77,2.04 1.03,3.11 0.29,1.06 0.66,2.08 0.83,3.17 0.48,2.15 0.75,4.33 1.02,6.5 0.18,2.19 0.33,4.39 0.31,6.59 0,1.1 -0.06,2.19 -0.11,3.28 -0.01,0.24 -0.04,0.5 -0.06,0.75 -2.46,1.03 -5.07,1.9 -7.85,2.52 -1.81,0.39 -3.65,0.69 -5.52,0.93 -1.83,0.28 -3.8,0.49 -5.54,0.58l-0.35 0c-0.82,0.11 -1.82,0.2 -2.75,0.26 -0.95,0.09 -1.91,0.15 -2.86,0.2 -1.92,0.11 -3.84,0.06 -5.78,0.07 -3.89,-0.09 -7.72,-0.48 -11.72,-1.44 3.02,2.43 6.74,4.1 10.5,5.29 -4.37,-0.6 -9.3,-1.7 -13.69,-3.71 -0.78,-6.29 -3.15,-38.3 25.99,-54.14 6.29,3.42 11.05,7.57 14.75,12.03 -0.37,-0.33 -0.7,-0.69 -1.1,-0.99 -1,-0.79 -1.94,-1.63 -3.04,-2.26l-3.25 -1.89c-2.17,-1.21 -4.61,-1.9 -6.87,-2.72l2.69 2.48zm334.29 97.09c-9.09,-1.77 -18.76,-3.13 -28.76,-4.61 -20.02,-2.8 -41.52,-4.77 -63.05,-6.27 -21.52,-1.69 -43.1,-2.77 -63.33,-3.53 -20.24,-0.75 -39.14,-1.47 -55.35,-1.81 -32.43,-0.82 -54.04,-1.37 -54.04,-1.37 0,0 5.4,-0.16 14.87,-0.44 9.46,-0.18 22.98,-0.61 39.2,-0.66 16.22,-0.02 35.16,-0.1 55.44,0.48 20.28,0.57 41.92,1.46 63.53,2.96 21.59,1.68 43.16,3.87 63.28,6.87 10.06,1.51 19.74,3.2 28.85,5.24 9.13,1.91 17.66,4.22 25.48,6.5 7.77,2.46 14.82,5 20.8,7.88 1.5,0.72 2.94,1.41 4.34,2.07 1.37,0.72 2.65,1.52 3.89,2.22 2.54,1.35 4.69,2.89 6.59,4.33 2,1.31 3.51,2.82 4.82,4.13 0.66,0.64 1.28,1.24 1.83,1.78 0.52,0.59 0.9,1.2 1.28,1.7 1.49,2.06 2.29,3.15 2.29,3.15 0,0 -0.86,-1.04 -2.47,-3 -0.42,-0.47 -0.82,-1.06 -1.37,-1.6 -0.59,-0.5 -1.23,-1.06 -1.93,-1.66 -1.38,-1.2 -2.93,-2.6 -4.96,-3.82 -1.94,-1.33 -4.11,-2.74 -6.68,-3.97 -1.26,-0.64 -2.54,-1.36 -3.92,-2.01 -1.41,-0.59 -2.87,-1.21 -4.38,-1.85 -6.02,-2.56 -13.1,-4.74 -20.83,-7.01 -7.81,-2.04 -16.31,-4.09 -25.43,-5.72zm407.01 304.67c-25.34,0.35 -61.54,1.21 -104.98,1.61 -43.44,0.36 -94.12,1.17 -148.41,1.34 -54.3,0.19 -112.21,0.38 -170.13,0.58 -57.92,-0.2 -115.83,-0.39 -170.13,-0.57 -54.29,-0.15 -104.97,-0.98 -148.41,-1.33 -43.44,-0.39 -79.63,-1.26 -104.98,-1.61 -25.33,-0.54 -39.81,-0.85 -39.81,-0.85 0,0 14.48,-0.31 39.81,-0.85 25.34,-0.36 61.54,-1.22 104.98,-1.62 43.44,-0.35 94.12,-1.19 148.41,-1.33 54.3,-0.19 112.21,-0.38 170.13,-0.58 57.92,0.2 115.84,0.4 170.13,0.58 54.29,0.17 104.97,0.98 148.41,1.34 43.44,0.4 79.63,1.26 104.98,1.61 25.33,0.54 39.81,0.85 39.81,0.85 0,0 -14.48,0.31 -39.81,0.85zm-253.39 100.61c-54.3,0.19 -112.21,0.38 -170.13,0.58 -57.92,-0.2 -115.83,-0.39 -170.13,-0.58 -54.29,-0.14 -104.97,-0.98 -148.41,-1.33 -43.44,-0.39 -79.63,-1.26 -104.98,-1.61 -25.33,-0.55 -39.81,-0.85 -39.81,-0.85 0,0 14.48,-0.31 39.81,-0.85 25.34,-0.36 61.54,-1.22 104.98,-1.62 43.44,-0.35 94.12,-1.19 148.41,-1.33 54.3,-0.18 112.21,-0.38 170.13,-0.57 57.92,0.2 115.84,0.4 170.13,0.58 54.29,0.17 104.97,0.98 148.41,1.34 43.44,0.4 79.63,1.25 104.98,1.61 25.33,0.54 39.81,0.85 39.81,0.85 0,0 -14.48,0.3 -39.81,0.85 -25.34,0.35 -61.54,1.21 -104.98,1.61 -43.44,0.36 -94.12,1.17 -148.41,1.34zm85.19 -192.41c0.7,8.41 1.61,16.33 2.5,23.65 1,7.3 1.95,13.97 2.95,19.87 1.04,5.89 2.09,11 3.1,15.18 1.06,4.16 1.91,7.43 2.66,9.61 0.69,2.2 1.2,3.32 1.2,3.32 0,0 -2.22,-4.43 -4.68,-12.72 -1.22,-4.15 -2.53,-9.22 -3.87,-15.08 -0.61,-2.94 -1.27,-6.07 -1.97,-9.38 -0.58,-3.32 -1.19,-6.81 -1.82,-10.46 -1.12,-7.31 -2.28,-15.24 -3.24,-23.67 -1,-8.42 -1.93,-17.31 -2.55,-26.54 -0.32,-4.61 -0.64,-9.3 -0.96,-14.05 -0.24,-4.75 -0.47,-9.56 -0.71,-14.4 -0.55,-9.69 -0.67,-19.55 -1.02,-29.39 -0.17,-19.72 -0.1,-39.41 0.19,-57.87 0.36,-18.44 0.69,-35.66 0.98,-50.41 0.19,-14.76 0.41,-27.04 0.28,-35.65 -0.12,-8.61 -0.19,-13.53 -0.19,-13.53 0,0 1.94,19.63 2.38,49.18 0.2,14.77 0.42,32 0.35,50.44 -0.11,18.45 0.04,38.11 0.38,57.76 0.26,9.81 0.28,19.65 0.72,29.3 0.19,4.83 0.37,9.63 0.56,14.36 0.27,4.73 0.55,9.4 0.81,14 0.61,9.19 1.19,18.07 1.93,26.47zm96.73 -397.21c11.7,0 21.18,9.48 21.18,21.19l0 5.45c-1.71,50.87 -4.57,89.11 -8.02,117.56l-5.89 -127.97 -8.98 194.71c-10.09,19.93 -19.46,0.82 -19.47,-13.98l0 -175.78c0,-11.7 9.48,-21.19 21.18,-21.19zm-815.39 459.5l488.98 0c-1.08,2.71 -1.71,4.25 -1.74,4.33 -0.08,0.19 -0.09,0.4 -0.17,0.59 -45.74,5.38 -117.91,11.24 -215.3,11.24 -152.99,0 -256.2,0 -283.57,0l0 -4.37c0,-6.52 5.28,-11.8 11.8,-11.8zm938.47 11.8l0 4.37c-7.35,0 -20.16,0 -40.55,0 -48.96,0 -91.08,-10.37 -110.81,-16.17l139.56 0c6.52,0 11.8,5.29 11.8,11.8zm-177.2 -165.65l0 36.71c-12.58,-19.31 -17.83,-36.3 -19.9,-45.45l11.16 0c4.83,0 8.74,3.91 8.74,8.74z"/>
   <path class="fil0" d="M567.59 526.17c0,0 1.21,-1.98 3.33,-5.44 1.98,-3.54 4.76,-8.62 7.91,-14.84 2.95,-6.3 6.12,-13.76 9.39,-21.84 2.92,-8.19 5.8,-17.02 8.44,-25.93 2.2,-9.03 4.16,-18.11 5.76,-26.66 1.23,-8.62 2.25,-16.67 2.87,-23.6 0.41,-6.96 0.56,-12.76 0.63,-16.81 -0.09,-4.06 -0.15,-6.39 -0.15,-6.39 0,0 -0.56,2.25 -1.55,6.19 -0.84,3.95 -2.09,9.57 -3.81,16.25 -1.38,6.73 -3.27,14.53 -5.44,22.81 -1.93,8.34 -4.23,17.17 -6.76,25.92 -2.22,8.84 -4.67,17.63 -7.19,25.8 -2.3,8.25 -4.58,15.93 -6.78,22.45 -1.88,6.64 -3.62,12.13 -4.88,15.96 -1.13,3.9 -1.78,6.12 -1.78,6.12z"/>
   <path class="fil0" d="M849.1 88.48c1.13,-1.03 2.48,-2.11 3.96,-3.14 1.53,-0.91 3.11,-1.94 4.89,-2.41 1.7,-0.7 3.54,-0.86 5.29,-1.06 0.9,0 1.78,0.01 2.6,0.02 0.84,0 1.64,0.19 2.4,0.23 1.54,0.08 2.8,0.46 3.74,0.57 0.93,0.14 1.5,0.19 1.5,0.19 0,0 -0.39,-0.38 -1.14,-0.98 -0.76,-0.56 -1.81,-1.55 -3.37,-2.18 -0.77,-0.33 -1.57,-0.83 -2.54,-1.05 -0.95,-0.22 -1.96,-0.54 -3.05,-0.65 -1.09,0 -2.24,-0.2 -3.4,0 -1.15,0.2 -2.35,0.32 -3.46,0.77 -1.14,0.37 -2.19,0.93 -3.19,1.52 -1.03,0.55 -1.85,1.36 -2.68,2.05 -1.57,1.5 -2.75,3.11 -3.53,4.6 -1.61,2.96 -1.76,5.24 -1.76,5.24 0,0 1.5,-1.65 3.75,-3.71z"/>
  </g>
 </g>
</svg>
