<svg width="48" height="43" viewBox="0 0 48 43" fill="none" xmlns="http://www.w3.org/2000/svg">
<path d="M3.68589 16.686L1.84295 18.7531L0 16.686L1.84295 14.6189L3.68589 16.686ZM48 40.0762C48 40.8517 47.7254 41.5953 47.2365 42.1436C46.7477 42.692 46.0846 43 45.3933 43C44.7019 43 44.0389 42.692 43.5501 42.1436C43.0612 41.5953 42.7866 40.8517 42.7866 40.0762H48ZM14.8765 33.372L1.84295 18.7531L5.52884 14.6189L18.5624 29.2378L14.8765 33.372ZM1.84295 14.6189L14.8765 0L18.5624 4.13422L5.52884 18.7531L1.84295 14.6189ZM3.68589 13.7622H29.753V19.6098H3.68589V13.7622ZM48 34.2287V40.0762H42.7866V34.2287H48ZM29.753 13.7622C34.5924 13.7622 39.2336 15.9185 42.6556 19.7567C46.0776 23.5949 48 28.8006 48 34.2287H42.7866C42.7866 30.3515 41.4134 26.6331 38.9691 23.8916C36.5249 21.15 33.2097 19.6098 29.753 19.6098V13.7622Z" fill="#1C3132"/>
</svg>
